<svg width="907" height="932" viewBox="0 0 907 932" fill="none" xmlns="http://www.w3.org/2000/svg">
<g opacity="0.62">
<path d="M355.61 770.265C317.987 786.426 279.51 795.269 237.516 790.096C190.709 784.325 148.025 747.378 122.79 709.4C113.415 695.293 105.643 679.355 105.418 662.422C104.911 623.304 141.456 616.544 173.13 620.809C190.984 623.204 207.693 630.22 224.212 637.17C251.639 648.718 283.221 653.216 308.235 670.071C316.63 675.745 323.116 682.796 332.695 686.697C347.596 692.771 364.298 695.008 379.549 700.426C392.572 705.079 407.318 713.168 408.237 726.961C409.162 741.107 394.992 751.086 382.391 757.564C373.474 762.176 364.574 766.431 355.61 770.265Z" fill="url(#paint0_linear_1_1596)"/>
<path d="M181.014 276.664C238.037 179.566 366.064 133.717 474.096 161.772C526.19 175.309 571.218 207.639 613.015 241.523C649.857 271.388 685.827 303.845 712.251 343.604C730.293 370.742 744.095 403.784 754.343 434.803C769.669 481.25 762.525 542.851 701.16 542.378C686.762 542.268 674.029 537.925 660.334 534.292C649.255 531.345 638.775 534.23 627.403 533.18C598.781 530.543 570.809 521.895 544.205 511.363C489.985 489.876 439.719 459.157 384.206 440.851C338.713 425.872 290.776 419.734 242.977 422.769C222.812 424.052 201.704 426.848 183.079 419.009C137.173 399.669 153.249 338.391 167.649 303.57C171.461 294.296 175.927 285.305 181.014 276.664Z" fill="url(#paint1_linear_1_1596)"/>
<path d="M676.618 258.407C687.619 267.136 730.106 290.155 728.924 259.965C728.619 252.445 724.738 245.377 719.744 240.181C714.03 234.216 707.802 231.297 703.181 224.215C697.535 215.667 691.223 207.7 684.327 200.415C670.211 185.237 653.985 171.421 635.04 166.031C621.751 162.255 599.841 164.853 594.759 181.899C587.353 206.713 626.07 208.644 638.365 216.709C650.032 224.34 657.268 238.29 666.823 249.127C669.842 252.544 673.121 255.651 676.618 258.407Z" fill="url(#paint2_linear_1_1596)"/>
<path d="M482.616 241.476C505.463 252.994 523.233 271.305 544.312 285.611C579.405 309.425 625.528 311.755 665.006 327.332C705.261 343.227 736.62 369.966 752.649 410.408C773.353 462.608 779.13 525.916 768.075 581.693C755.899 643.089 720.671 685.644 667.082 715.988C613.525 746.314 553.076 762.78 492.143 769.341C486.264 769.979 480.386 770.499 474.479 770.923C341.792 780.358 162.061 745.17 107.562 605.527C107.063 604.251 106.581 602.974 106.096 601.679C100.403 586.096 96.5949 569.888 94.7545 553.401C88.0851 494.96 94.1218 429.58 111.088 373.278C122.498 335.375 150.224 302.145 180.137 277.806C222.166 243.612 275.418 232.109 328.695 224.858C368.146 219.49 412.654 215.564 451.122 228.277C461.935 231.884 472.463 236.296 482.616 241.476Z" fill="url(#paint3_linear_1_1596)"/>
</g>
<path d="M438.611 441.688C440.211 445.498 444.598 447.289 448.408 445.688L464.098 439.096C472.085 435.74 480.745 434.256 489.388 434.858C491.965 435.037 494.633 434.549 497.142 433.292C503.789 429.962 506.997 422.07 504.559 415.045C501.697 406.799 492.534 402.799 484.613 406.127C482.467 407.029 480.642 408.372 479.199 410.006C473.407 416.568 466.367 421.91 458.298 425.3L442.611 431.891C438.801 433.491 437.01 437.878 438.611 441.688Z" fill="#FB4C47"/>
<path d="M363.951 525.756C360.788 524.465 357.176 525.982 355.885 529.145L350.566 542.172C347.859 548.803 343.664 554.734 338.259 559.435C336.648 560.836 335.374 562.681 334.642 564.882C332.703 570.715 335.441 577.205 340.973 579.886C347.467 583.035 355.162 580.016 357.847 573.439C358.574 571.658 358.856 569.806 358.745 568.007C358.295 560.785 359.288 553.546 362.023 546.847L367.341 533.823C368.631 530.659 367.114 527.048 363.951 525.756Z" fill="#C63F3B"/>
<path d="M411.924 408.269C415.234 409.62 419.013 408.033 420.364 404.722L425.93 391.091C428.764 384.152 433.153 377.946 438.808 373.027C440.494 371.56 441.828 369.63 442.594 367.326C444.623 361.222 441.757 354.431 435.969 351.626C429.173 348.331 421.12 351.491 418.311 358.372C417.55 360.236 417.255 362.174 417.372 364.057C417.842 371.614 416.803 379.189 413.942 386.199L408.377 399.828C407.026 403.138 408.614 406.917 411.924 408.269Z" fill="#C63F3B"/>
<path d="M410.383 510.838C406.573 512.439 404.782 516.825 406.383 520.635L412.975 536.325C416.331 544.312 417.816 552.972 417.214 561.615C417.034 564.192 417.522 566.86 418.779 569.369C422.11 576.016 430.002 579.224 437.026 576.786C445.273 573.924 449.272 564.761 445.944 556.84C445.043 554.694 443.7 552.869 442.065 551.426C435.504 545.634 430.162 538.594 426.771 530.525L420.18 514.838C418.58 511.028 414.193 509.237 410.383 510.838Z" fill="#FB4C47"/>
<path d="M442.063 551.427C435.502 545.635 430.159 538.595 426.769 530.526L420.178 514.839C418.577 511.029 414.191 509.237 410.38 510.838C406.57 512.439 404.779 516.825 406.38 520.636L412.971 536.323C416.361 544.392 421.704 551.431 428.265 557.224C429.9 558.667 431.243 560.492 432.144 562.638C434.288 567.741 433.387 573.357 430.273 577.474C432.495 577.763 434.803 577.558 437.024 576.787C445.27 573.925 449.27 564.761 445.942 556.841C445.04 554.695 443.697 552.87 442.063 551.427Z" fill="#C63F3B"/>
<path d="M326.465 455.288C338.911 450.058 344.762 435.729 339.532 423.283C334.303 410.836 319.974 404.986 307.527 410.215C295.081 415.445 289.231 429.774 294.46 442.22C299.689 454.667 314.018 460.517 326.465 455.288Z" fill="#FF8F8C"/>
<path d="M307.533 410.215C305.126 411.226 302.969 412.581 301.088 414.193C311.383 413.296 321.522 419.04 325.74 429.079C329.958 439.119 326.964 450.38 319.117 457.106C321.586 456.891 324.063 456.299 326.47 455.287C338.917 450.058 344.767 435.729 339.538 423.282C334.308 410.836 319.979 404.985 307.533 410.215Z" fill="#FB4C47"/>
<path d="M420.841 535.733C461.482 518.658 480.585 471.869 463.51 431.229C446.435 390.588 399.646 371.485 359.006 388.56C318.365 405.635 299.262 452.424 316.337 493.064C333.412 533.705 380.201 552.808 420.841 535.733Z" fill="#FB4C47"/>
<path d="M359.006 388.559C356.679 389.537 354.427 390.616 352.244 391.783C391.11 379.545 433.615 398.712 449.713 437.025C465.811 475.339 449.75 519.111 413.807 538.306C416.167 537.563 418.515 536.71 420.842 535.732C461.483 518.657 480.586 471.869 463.511 431.228C446.435 390.587 399.647 371.484 359.006 388.559Z" fill="#C63F3B"/>
<path d="M413.232 440.345C421.487 436.877 425.367 427.373 421.899 419.118C418.431 410.863 408.927 406.982 400.671 410.451C392.416 413.919 388.536 423.423 392.004 431.678C395.473 439.933 404.977 443.814 413.232 440.345Z" fill="#C63F3B"/>
<path d="M400.67 410.451C398.181 411.497 396.093 413.094 394.481 415.038C400.31 415.522 405.677 419.15 408.1 424.915C410.522 430.681 409.357 437.054 405.622 441.556C408.139 441.765 410.741 441.391 413.23 440.346C421.486 436.877 425.366 427.373 421.898 419.118C418.429 410.863 408.925 406.983 400.67 410.451Z" fill="white"/>
<path d="M379.95 512.063C385.538 509.715 388.165 503.281 385.817 497.693C383.469 492.105 377.036 489.478 371.447 491.826C365.859 494.174 363.232 500.608 365.58 506.196C367.928 511.784 374.362 514.411 379.95 512.063Z" fill="white"/>
<path d="M468.713 509.486C476.334 506.284 479.916 497.511 476.714 489.891C473.512 482.271 464.739 478.689 457.119 481.891C449.499 485.092 445.917 493.865 449.119 501.485C452.32 509.106 461.093 512.687 468.713 509.486Z" fill="#FB4C47"/>
<path d="M457.118 481.891C454.604 482.947 452.533 484.613 450.997 486.64C456.122 487.294 460.77 490.583 462.916 495.689C465.061 500.796 464.157 506.417 461.036 510.535C463.56 510.857 466.199 510.543 468.713 509.487C476.333 506.285 479.915 497.512 476.713 489.892C473.512 482.272 464.739 478.689 457.118 481.891Z" fill="#C63F3B"/>
<path d="M341.227 482.604C342.828 486.414 341.037 490.801 337.227 492.402L321.537 498.994C313.55 502.35 306.428 507.496 300.809 514.09C299.134 516.056 296.918 517.62 294.264 518.532C287.233 520.949 279.351 517.716 276.04 511.059C272.153 503.243 275.71 493.899 283.631 490.571C285.777 489.669 288.013 489.306 290.191 489.419C298.931 489.874 307.674 488.586 315.743 485.196L331.43 478.604C335.24 477.003 339.627 478.794 341.227 482.604Z" fill="#C63F3B"/>
<path d="M369.471 413.453C373.281 411.853 375.072 407.466 373.471 403.656L366.879 387.966C363.523 379.979 362.039 371.319 362.641 362.676C362.82 360.1 362.332 357.431 361.075 354.923C357.745 348.275 349.853 345.067 342.828 347.505C334.582 350.367 330.582 359.53 333.91 367.451C334.812 369.597 336.155 371.422 337.789 372.865C344.351 378.657 349.693 385.697 353.083 393.766L359.674 409.453C361.274 413.263 365.661 415.054 369.471 413.453Z" fill="#FB4C47"/>
<path d="M361.076 354.922C357.746 348.275 349.853 345.067 342.829 347.505C339.895 348.523 337.503 350.341 335.783 352.615C340.59 353.238 345.001 356.174 347.278 360.72C348.535 363.229 349.023 365.897 348.844 368.473C348.242 377.116 349.727 385.776 353.082 393.763L359.675 409.453C361.275 413.263 365.662 415.054 369.472 413.453C373.282 411.852 375.073 407.466 373.472 403.656L366.88 387.966C363.524 379.979 362.04 371.319 362.641 362.676C362.821 360.099 362.333 357.431 361.076 354.922Z" fill="#C63F3B"/>
<path d="M486.174 406.516C484.013 407.377 482.165 408.686 480.693 410.293C480.432 410.577 480.166 410.856 479.901 411.136C485.339 411.905 490.192 415.649 492.048 421.333C493.636 426.195 492.543 431.418 489.523 435.248C489.821 435.269 490.12 435.287 490.418 435.313C492.99 435.54 495.664 435.101 498.195 433.891C504.898 430.685 508.249 422.858 505.942 415.794C503.233 407.501 494.15 403.336 486.174 406.516Z" fill="#C63F3B"/>
<g opacity="0.63">
<path d="M545.318 581.089C546.534 582.805 548.911 583.212 550.628 581.996L557.697 576.989C561.296 574.44 565.436 572.747 569.797 572.092C571.097 571.897 572.369 571.36 573.477 570.459C576.413 568.07 577.136 563.795 575.15 560.573C572.818 556.791 567.823 555.814 564.254 558.342C563.287 559.027 562.529 559.896 561.992 560.867C559.837 564.767 556.929 568.198 553.293 570.773L546.225 575.779C544.508 576.995 544.102 579.372 545.318 581.089Z" fill="#FFC700"/>
<path d="M511.625 621.918C509.911 621.626 508.284 622.778 507.991 624.492L506.785 631.552C506.171 635.146 504.741 638.556 502.574 641.488C501.928 642.362 501.498 643.42 501.378 644.594C501.057 647.707 503.134 650.629 506.179 651.352C509.753 652.2 513.244 649.85 513.853 646.286C514.018 645.321 513.953 644.37 513.699 643.488C512.679 639.949 512.374 636.242 512.994 632.611L514.199 625.553C514.492 623.838 513.339 622.211 511.625 621.918Z" fill="#D09700"/>
<path d="M522.504 558.243C524.298 558.55 526 557.344 526.307 555.55L527.569 548.162C528.211 544.401 529.708 540.833 531.975 537.765C532.651 536.85 533.101 535.744 533.227 534.514C533.562 531.257 531.389 528.199 528.203 527.444C524.463 526.556 520.809 529.015 520.172 532.744C520 533.754 520.067 534.75 520.333 535.673C521.401 539.376 521.72 543.255 521.071 547.054L519.81 554.44C519.504 556.234 520.71 557.937 522.504 558.243Z" fill="#D09700"/>
<path d="M533.049 609.385C531.332 610.6 530.926 612.978 532.142 614.694L537.149 621.764C539.698 625.363 541.391 629.502 542.046 633.863C542.241 635.164 542.778 636.436 543.679 637.544C546.067 640.48 550.343 641.203 553.565 639.217C557.347 636.885 558.323 631.89 555.796 628.321C555.111 627.354 554.242 626.595 553.271 626.059C549.371 623.904 545.94 620.995 543.365 617.36L538.359 610.292C537.143 608.575 534.766 608.169 533.049 609.385Z" fill="#FFC700"/>
<path d="M553.27 626.057C549.371 623.902 545.939 620.994 543.364 617.358L538.358 610.29C537.143 608.573 534.765 608.167 533.048 609.383C531.332 610.599 530.926 612.976 532.141 614.693L537.148 621.761C539.723 625.397 543.154 628.305 547.054 630.46C548.025 630.997 548.894 631.755 549.579 632.722C551.207 635.021 551.379 637.912 550.285 640.301C551.422 640.199 552.546 639.843 553.564 639.215C557.346 636.883 558.323 631.888 555.795 628.319C555.111 627.352 554.242 626.594 553.27 626.057Z" fill="#D09700"/>
<path d="M485.224 591.038C490.832 587.066 492.159 579.3 488.187 573.692C484.215 568.084 476.449 566.758 470.841 570.73C465.234 574.701 463.907 582.467 467.879 588.075C471.851 593.683 479.617 595.009 485.224 591.038Z" fill="#D09700"/>
<path d="M470.842 570.729C469.758 571.497 468.835 572.409 468.078 573.417C473.095 571.836 478.767 573.572 481.971 578.095C485.174 582.618 484.929 588.545 481.772 592.752C482.975 592.373 484.14 591.805 485.225 591.037C490.833 587.066 492.159 579.3 488.188 573.692C484.216 568.084 476.45 566.758 470.842 570.729Z" fill="#FFC700"/>
<path d="M540.992 620.602C559.303 607.633 563.634 582.275 550.665 563.964C537.696 545.652 512.338 541.321 494.027 554.29C475.715 567.259 471.385 592.617 484.354 610.928C497.323 629.24 522.68 633.571 540.992 620.602Z" fill="#FFC700"/>
<path d="M494.033 554.29C492.985 555.032 491.985 555.817 491.028 556.637C508.992 546.268 532.228 551.103 544.455 568.366C556.681 585.629 553.53 609.152 537.786 622.656C538.877 622.027 539.95 621.344 540.998 620.601C559.31 607.632 563.641 582.274 550.672 563.963C537.702 545.651 512.345 541.321 494.033 554.29Z" fill="#D09700"/>
<path d="M522.115 576.823C523.469 575.864 523.789 573.989 522.83 572.635C521.871 571.281 519.996 570.96 518.641 571.919C517.287 572.878 516.967 574.754 517.926 576.108C518.885 577.462 520.76 577.782 522.115 576.823Z" fill="white"/>
<path d="M518.058 613.351C520.576 611.567 521.172 608.08 519.388 605.562C517.605 603.044 514.118 602.448 511.6 604.232C509.081 606.015 508.486 609.503 510.269 612.021C512.053 614.539 515.54 615.134 518.058 613.351Z" fill="white"/>
<path d="M500.422 589.911C504.278 587.18 505.189 581.841 502.459 577.986C499.728 574.131 494.39 573.219 490.534 575.95C486.679 578.68 485.767 584.019 488.498 587.874C491.228 591.729 496.567 592.641 500.422 589.911Z" fill="white"/>
<path d="M561.882 602.277C565.315 599.845 566.127 595.091 563.696 591.657C561.264 588.223 556.509 587.411 553.076 589.843C549.642 592.275 548.83 597.03 551.262 600.463C553.694 603.897 558.448 604.709 561.882 602.277Z" fill="#FFC700"/>
<path d="M553.077 589.844C551.944 590.646 551.099 591.702 550.559 592.879C553.178 592.638 555.851 593.76 557.48 596.061C559.11 598.362 559.281 601.255 558.185 603.646C559.474 603.527 560.751 603.08 561.884 602.278C565.317 599.846 566.129 595.091 563.698 591.658C561.266 588.224 556.511 587.412 553.077 589.844Z" fill="#D09700"/>
<path d="M495.573 602.984C496.789 604.7 496.383 607.078 494.666 608.294L487.597 613.3C483.998 615.849 481.027 619.192 478.962 623.089C478.346 624.251 477.418 625.273 476.2 626.019C472.972 627.995 468.699 627.258 466.319 624.316C463.525 620.861 464.262 615.825 467.831 613.297C468.798 612.612 469.869 612.185 470.964 612.001C475.357 611.263 479.559 609.658 483.195 607.083L490.263 602.077C491.98 600.861 494.357 601.267 495.573 602.984Z" fill="#D09700"/>
<path d="M501.975 565.507C503.691 564.292 504.097 561.914 502.882 560.197L497.875 553.128C495.326 549.529 493.633 545.39 492.978 541.028C492.783 539.728 492.246 538.456 491.345 537.348C488.956 534.412 484.681 533.689 481.459 535.675C477.677 538.007 476.7 543.002 479.228 546.571C479.913 547.538 480.781 548.297 481.753 548.833C485.652 550.988 489.084 553.897 491.659 557.532L496.665 564.601C497.88 566.317 500.258 566.723 501.975 565.507Z" fill="#FFC700"/>
<path d="M491.343 537.349C488.954 534.413 484.678 533.689 481.457 535.676C480.111 536.505 479.123 537.673 478.519 538.992C480.977 538.772 483.492 539.744 485.126 541.752C486.027 542.86 486.564 544.132 486.759 545.432C487.414 549.793 489.107 553.933 491.656 557.532L496.662 564.601C497.878 566.318 500.256 566.724 501.972 565.508C503.689 564.292 504.095 561.915 502.879 560.198L497.872 553.128C495.324 549.53 493.63 545.39 492.976 541.029C492.781 539.729 492.244 538.456 491.343 537.349Z" fill="#D09700"/>
</g>
<path d="M596.608 497.456C594.251 496.905 591.894 498.37 591.343 500.727L589.076 510.433C587.922 515.375 585.649 519.992 582.392 523.884C581.421 525.044 580.736 526.477 580.469 528.099C579.763 532.396 582.404 536.63 586.573 537.889C591.467 539.366 596.514 536.396 597.658 531.495C597.968 530.168 597.959 528.841 597.68 527.595C596.559 522.592 596.446 517.418 597.612 512.426L599.879 502.721C600.43 500.364 598.965 498.006 596.608 497.456Z" fill="#1DB776"/>
<path d="M582.408 433.152C584.108 432.096 584.63 429.862 583.574 428.162L579.225 421.162C577.011 417.598 575.64 413.57 575.269 409.391C575.158 408.145 574.721 406.907 573.929 405.803C571.829 402.878 567.81 401.946 564.637 403.647C560.912 405.645 559.698 410.332 561.894 413.866C562.488 414.823 563.27 415.593 564.162 416.159C567.741 418.428 570.833 421.388 573.069 424.988L577.418 431.987C578.474 433.686 580.708 434.208 582.408 433.152Z" fill="#128E5A"/>
<path d="M621.631 496.288C619.852 497.393 619.306 499.731 620.412 501.509L624.963 508.835C627.279 512.564 628.713 516.779 629.102 521.152C629.218 522.455 629.675 523.752 630.505 524.907C632.702 527.967 636.907 528.943 640.227 527.162C644.126 525.072 645.396 520.167 643.098 516.469C642.476 515.467 641.658 514.661 640.725 514.069C636.98 511.695 633.745 508.598 631.404 504.831L626.854 497.507C625.748 495.729 623.41 495.182 621.631 496.288Z" fill="#128E5A"/>
<path d="M573.519 460.297C574.069 457.94 572.605 455.583 570.248 455.032L560.541 452.765C555.6 451.61 550.983 449.338 547.091 446.081C545.931 445.11 544.498 444.425 542.876 444.158C538.579 443.452 534.344 446.092 533.086 450.261C531.608 455.156 534.579 460.203 539.479 461.347C540.806 461.657 542.134 461.648 543.38 461.369C548.382 460.248 553.557 460.135 558.549 461.301L568.254 463.568C570.611 464.119 572.968 462.654 573.519 460.297Z" fill="#1DB776"/>
<path d="M543.382 461.369C548.384 460.249 553.559 460.135 558.551 461.301L568.256 463.568C570.613 464.119 572.97 462.654 573.521 460.297C574.071 457.94 572.607 455.583 570.25 455.032L560.544 452.765C555.553 451.599 550.378 451.713 545.375 452.833C544.129 453.112 542.802 453.122 541.475 452.812C538.318 452.074 535.964 449.716 535.082 446.824C534.181 447.779 533.485 448.943 533.087 450.262C531.61 455.156 534.581 460.203 539.481 461.348C540.808 461.658 542.135 461.648 543.382 461.369Z" fill="#128E5A"/>
<path d="M628.709 439.598C626.911 447.299 631.695 454.999 639.395 456.797C647.095 458.596 654.795 453.812 656.594 446.112C658.393 438.412 653.608 430.712 645.908 428.913C638.208 427.114 630.508 431.898 628.709 439.598Z" fill="#128E5A"/>
<path d="M656.596 446.114C656.944 444.625 657.043 443.136 656.925 441.689C653.811 446.88 647.602 449.714 641.391 448.263C635.18 446.812 630.869 441.521 630.377 435.488C629.63 436.732 629.059 438.111 628.712 439.6C626.913 447.3 631.697 455 639.397 456.799C647.097 458.598 654.797 453.813 656.596 446.114Z" fill="#1DB776"/>
<path d="M558.117 456.701C552.244 481.843 567.865 506.986 593.007 512.859C618.15 518.732 643.293 503.111 649.166 477.969C655.039 452.826 639.418 427.683 614.275 421.81C589.133 415.937 563.99 431.558 558.117 456.701Z" fill="#1DB776"/>
<path d="M649.174 477.968C649.511 476.528 649.773 475.089 649.971 473.653C642.413 496.291 618.713 509.859 595.01 504.323C571.307 498.786 556.07 476.123 559.323 452.479C558.864 453.854 558.462 455.261 558.125 456.7C552.252 481.843 567.873 506.986 593.016 512.859C618.159 518.732 643.301 503.11 649.174 477.968Z" fill="#128E5A"/>
<path d="M605.964 485.882C604.772 490.989 607.945 496.096 613.052 497.289C618.159 498.482 623.266 495.309 624.459 490.202C625.652 485.095 622.479 479.988 617.372 478.795C612.265 477.602 607.157 480.775 605.964 485.882Z" fill="#128E5A"/>
<path d="M624.469 490.201C624.828 488.661 624.789 487.122 624.421 485.689C622.187 488.287 618.622 489.585 615.055 488.752C611.488 487.919 608.867 485.175 608.016 481.857C607.052 482.978 606.334 484.341 605.974 485.881C604.781 490.988 607.954 496.095 613.061 497.288C618.168 498.481 623.276 495.308 624.469 490.201Z" fill="white"/>
<path d="M583.4 445.444C582.592 448.902 584.74 452.359 588.198 453.167C591.655 453.974 595.112 451.826 595.92 448.369C596.728 444.911 594.58 441.454 591.122 440.646C587.665 439.839 584.207 441.987 583.4 445.444Z" fill="white"/>
<path d="M554.107 488.424C553.005 493.139 555.935 497.854 560.65 498.955C565.364 500.057 570.079 497.127 571.181 492.413C572.282 487.698 569.353 482.983 564.638 481.881C559.923 480.78 555.208 483.709 554.107 488.424Z" fill="#1DB776"/>
<path d="M571.185 492.411C571.548 490.856 571.47 489.301 571.037 487.875C568.965 490.081 565.807 491.155 562.647 490.417C559.488 489.679 557.133 487.318 556.252 484.422C555.232 485.508 554.474 486.867 554.11 488.423C553.009 493.138 555.938 497.853 560.653 498.954C565.368 500.055 570.083 497.126 571.185 492.411Z" fill="#128E5A"/>
<path d="M610.68 437.211C608.323 436.66 606.858 434.303 607.408 431.946L609.676 422.239C610.83 417.298 610.838 412.152 609.642 407.22C609.286 405.75 609.306 404.162 609.786 402.589C611.056 398.424 615.299 395.798 619.594 396.516C624.637 397.36 627.845 402.259 626.701 407.159C626.391 408.486 625.794 409.672 624.992 410.666C621.771 414.654 619.377 419.243 618.211 424.235L615.944 433.94C615.394 436.297 613.037 437.761 610.68 437.211Z" fill="#128E5A"/>
<path d="M633.768 474.372C633.217 476.729 634.682 479.086 637.039 479.637L646.745 481.904C651.687 483.058 656.304 485.331 660.195 488.587C661.356 489.558 662.789 490.244 664.411 490.51C668.708 491.216 672.942 488.576 674.201 484.407C675.678 479.513 672.708 474.466 667.807 473.321C666.48 473.011 665.153 473.021 663.906 473.3C658.904 474.42 653.729 474.534 648.737 473.368L639.032 471.101C636.676 470.55 634.318 472.015 633.768 474.372Z" fill="#1DB776"/>
<path d="M664.409 490.508C668.707 491.214 672.941 488.574 674.199 484.405C674.725 482.664 674.685 480.904 674.198 479.307C672.25 481.372 669.342 482.455 666.403 481.972C664.781 481.706 663.348 481.02 662.188 480.049C658.296 476.793 653.679 474.52 648.738 473.366L639.031 471.099C636.674 470.548 634.317 472.012 633.766 474.37C633.216 476.727 634.68 479.084 637.038 479.635L646.744 481.902C651.685 483.056 656.302 485.329 660.194 488.585C661.354 489.556 662.787 490.242 664.409 490.508Z" fill="#128E5A"/>
<path d="M597.656 531.501C597.966 530.175 597.957 528.848 597.678 527.602C597.628 527.382 597.583 527.161 597.538 526.94C595.347 529.295 591.922 530.372 588.568 529.36C585.7 528.494 583.556 526.219 582.728 523.484C582.618 523.621 582.509 523.758 582.397 523.893C581.427 525.053 580.741 526.485 580.475 528.106C579.769 532.401 582.408 536.634 586.575 537.892C591.468 539.369 596.512 536.399 597.656 531.501Z" fill="#128E5A"/>
<defs>
<linearGradient id="paint0_linear_1_1596" x1="102.35" y1="668.027" x2="151.367" y2="804.167" gradientUnits="userSpaceOnUse">
<stop stop-color="#FFD8D8"/>
<stop offset="1" stop-color="#FFF8F8"/>
</linearGradient>
<linearGradient id="paint1_linear_1_1596" x1="748.761" y1="323.034" x2="312.144" y2="85.6849" gradientUnits="userSpaceOnUse">
<stop stop-color="#FFF8F8"/>
<stop offset="1" stop-color="#FFCFCF"/>
</linearGradient>
<linearGradient id="paint2_linear_1_1596" x1="729.949" y1="259.367" x2="572.229" y2="203.845" gradientUnits="userSpaceOnUse">
<stop stop-color="#FFD7D7"/>
<stop offset="1" stop-color="#FFF9F9"/>
</linearGradient>
<linearGradient id="paint3_linear_1_1596" x1="723.526" y1="693.82" x2="83.3576" y2="376.87" gradientUnits="userSpaceOnUse">
<stop stop-color="#FFCFCF"/>
<stop offset="1" stop-color="#FFF8F8"/>
</linearGradient>
</defs>
</svg>
