<svg width="1792" height="895" viewBox="0 0 1792 895" fill="none" xmlns="http://www.w3.org/2000/svg">
<path d="M825.104 722.83C789.933 743.162 753.065 756.385 711.087 756.212C664.298 756.015 617.915 724.62 588.603 690.164C577.712 677.367 568.188 662.576 565.98 645.921C560.894 607.443 596.105 596.498 627.809 596.986C645.679 597.253 662.962 602.205 680.052 607.115C708.425 615.276 740.066 616.004 766.685 629.677C775.62 634.282 782.837 640.469 792.731 643.189C808.123 647.425 824.84 647.671 840.5 651.22C853.875 654.277 869.35 660.518 871.872 673.998C874.443 687.826 861.653 699.318 849.999 707.177C841.754 712.766 833.485 718.002 825.104 722.83Z" fill="url(#paint0_linear_1_1152)"/>
<path d="M576.8 267.685C617.798 157.432 741.155 86.9824 857.386 96.193C913.435 100.643 965.635 125.71 1014.79 152.964C1058.12 176.983 1101.03 203.828 1135.44 239.921C1158.93 264.556 1179.14 296.034 1195.33 326.078C1219.54 371.069 1223.39 435.735 1160.18 446.409C1145.35 448.915 1131.47 446.763 1116.72 445.517C1104.78 444.5 1094.53 449.375 1082.64 450.363C1052.72 452.856 1022.37 449.047 993.089 443.053C933.407 430.811 876.113 408.354 815.679 399.62C766.158 392.486 715.73 394.892 667.114 406.707C646.604 411.695 625.399 418.409 604.815 413.734C554.076 402.189 559.467 336.23 567.946 297.792C570.181 287.559 573.14 277.498 576.8 267.685V267.685Z" fill="url(#paint1_linear_1_1152)"/>
<path d="M1076.51 161.678C1088.57 168.201 1133.33 183.109 1127.06 154.285C1125.49 147.106 1120.56 140.971 1114.87 136.824C1108.37 132.06 1101.88 130.313 1096.24 124.29C1089.35 117.032 1081.93 110.445 1074.06 104.613C1057.91 92.4207 1039.96 81.8962 1020.83 79.9338C1007.41 78.5628 986.791 84.785 984.803 102.037C981.901 127.153 1019.45 122.428 1032.64 128.092C1045.16 133.445 1054.49 145.626 1065.52 154.421C1069 157.193 1072.68 159.622 1076.51 161.678V161.678Z" fill="url(#paint2_linear_1_1152)"/>
<path d="M872.693 174.827C898.29 182.519 919.899 198.123 944.184 209.005C984.615 227.119 1032.48 221.127 1075.93 229.97C1120.23 238.999 1157.35 260.8 1181.19 299.486C1211.98 349.417 1229.44 413.489 1228.21 472.875C1226.85 538.245 1198.36 588.427 1148.75 629.388C1099.17 670.324 1039.99 698.257 978.502 716.088C972.57 717.814 966.619 719.418 960.619 720.928C825.845 754.768 634.563 751.26 553.103 617.527C552.357 616.305 551.629 615.08 550.895 613.835C542.204 598.842 535.339 582.862 530.447 566.236C512.958 507.333 507.276 438.982 514.489 377.98C519.331 336.915 544.321 304.897 570.665 274.419C607.678 231.601 657.853 202.876 711.337 185.727C750.943 173.03 796.012 160.896 837.895 166.977C849.674 168.721 861.306 171.344 872.693 174.827Z" fill="url(#paint3_linear_1_1152)"/>
<path d="M1186.26 591.85C1162.6 624.875 1134.47 652.125 1096.15 669.277C1053.44 688.391 998.243 678.915 957.331 659.612C942.132 652.444 927.356 642.897 918.477 628.634C897.977 595.677 925.541 571.187 954.626 558.558C971.016 551.432 988.803 548.817 1006.4 546.244C1035.61 541.978 1064.74 529.595 1094.63 531.075C1104.66 531.586 1113.79 534.246 1123.93 532.644C1139.7 530.157 1155.03 523.487 1170.76 520.263C1184.2 517.533 1200.87 516.837 1208.73 528.078C1216.77 539.615 1209.86 555.359 1202.48 567.324C1197.28 575.815 1191.9 583.995 1186.26 591.85Z" fill="url(#paint4_linear_1_1152)"/>
<path d="M108.78 656.506C122.117 663.318 171.374 678.448 163.79 647.135C161.89 639.337 156.346 632.765 150.033 628.383C142.804 623.349 135.68 621.607 129.36 615.175C121.66 607.427 113.386 600.425 104.645 594.259C86.6963 581.361 66.8278 570.33 45.8883 568.678C31.2028 567.525 8.84368 574.849 7.11542 593.738C4.59196 621.236 45.4726 615.113 60.022 620.959C73.8237 626.483 84.3216 639.544 96.59 648.864C100.465 651.802 104.545 654.36 108.78 656.506V656.506Z" fill="url(#paint5_linear_1_1152)"/>
<path d="M1725.16 728.124C1693.8 725.688 1663.63 728.779 1634.37 742.922C1601.76 758.688 1579.85 796.084 1570.9 829.913C1567.57 842.479 1565.86 855.979 1569.88 868.335C1579.19 896.877 1607.44 892.751 1629.42 881.82C1641.81 875.665 1652.22 866.436 1662.52 857.302C1679.61 842.131 1701.46 831.054 1715.49 812.624C1720.19 806.427 1723.16 799.7 1729.16 794.497C1738.5 786.4 1750.09 780.645 1759.84 772.938C1768.16 766.338 1776.88 756.815 1774.14 746.568C1771.32 736.063 1758.54 732.318 1747.78 730.728C1740.15 729.583 1732.63 728.693 1725.16 728.124Z" fill="url(#paint6_linear_1_1152)"/>
<path d="M790.432 412.302C790.091 412.302 789.748 412.194 789.455 411.968C789.188 411.758 782.859 406.759 778.026 396.562C773.594 387.211 769.658 371.534 776.066 349.921C780.412 335.259 784.768 324.836 788.609 315.634C795.583 298.94 800.623 286.878 801.03 261.306C801.043 260.431 801.689 259.68 802.643 259.741C803.525 259.757 804.225 260.476 804.212 261.357C803.795 287.54 798.389 300.48 791.545 316.863C787.734 325.988 783.416 336.328 779.117 350.828C767.431 390.23 791.17 409.27 791.412 409.454C792.102 409.995 792.226 410.994 791.689 411.688C791.374 412.092 790.906 412.302 790.432 412.302Z" fill="#000C3E"/>
<path d="M920.799 161.035C920.561 178.369 906.316 192.232 888.979 191.994C871.645 191.755 857.785 177.51 858.021 160.173C858.259 142.839 872.507 128.979 889.841 129.215C907.175 129.454 921.038 143.701 920.799 161.035Z" fill="#000C3E"/>
<path d="M787.394 401.089C787.394 401.089 797.051 419.858 834.808 425.645C872.563 431.43 901.749 417.125 931.024 426.963C960.299 436.804 1001.91 422.091 1009.93 409.699C1017.95 397.306 1013 262.282 989.577 240.179C966.153 218.075 845.792 202.02 820.433 229.138C795.075 256.259 770.55 386.268 787.394 401.089Z" fill="#000C3E"/>
<path d="M1001.94 289.38C1001.16 346.508 954.209 392.185 897.078 391.402C839.95 390.62 794.273 343.67 795.055 286.542C795.841 229.414 842.788 183.737 899.916 184.52C957.044 185.306 1002.72 232.252 1001.94 289.38Z" fill="#000C3E"/>
<path d="M813.966 286.087C813.966 286.087 821.198 411.52 906.201 414.925C991.201 418.329 986.915 241.46 955.801 225.363C924.687 209.27 796.587 215.471 813.966 286.087Z" fill="#FFCEB0"/>
<path d="M901.744 310.891C901.744 310.891 918.871 349.145 914.761 351.805C910.65 354.462 898.432 354.296 895.075 351.534C891.719 348.773 895.012 306.726 901.744 310.891Z" fill="#F5A473"/>
<path d="M876.633 324.426C876.522 328.83 872.863 332.31 868.46 332.199C864.056 332.091 860.575 328.432 860.687 324.028C860.795 319.625 864.454 316.144 868.86 316.252C873.264 316.364 876.745 320.023 876.633 324.426Z" fill="#41294A"/>
<path d="M945.01 319.045C944.899 323.449 941.24 326.929 936.836 326.818C932.433 326.71 928.952 323.051 929.064 318.647C929.172 314.244 932.831 310.763 937.237 310.871C941.641 310.982 945.122 314.641 945.01 319.045Z" fill="#41294A"/>
<path d="M879.202 217.554C879.202 217.554 849.118 232.995 843.986 260.758C838.851 288.522 843.525 359.192 811.205 356.713C811.205 356.713 745.451 218.196 879.202 217.554" fill="#41294A"/>
<path d="M895.256 217.774C892.542 219.816 926.679 218.922 946.759 242.12C966.842 265.318 972.881 324.343 975.926 325.367C978.971 326.395 989.257 251.735 967.329 229.899C945.4 208.066 910.7 206.151 895.256 217.774Z" fill="#41294A"/>
<path d="M968.725 330.584C968.725 330.584 976.103 298.964 990.542 309.813C1004.98 320.663 992.938 353.807 978.998 357.119C965.062 360.432 961.372 346.966 968.725 330.584Z" fill="#FFCEB0"/>
<path d="M834.746 328.746C834.746 328.746 828.236 296.935 813.505 307.384C798.777 317.833 809.906 351.299 823.747 354.993C837.591 358.683 841.647 345.326 834.746 328.746Z" fill="#FFCEB0"/>
<path d="M933.183 290.911C933.183 290.911 948.195 282.991 957.444 294.369C965.58 304.372 947.011 296.265 940.177 297.56C933.339 298.859 924.31 298.292 933.183 290.911Z" fill="#41294A"/>
<path d="M873.527 293.793C873.527 293.793 858.13 286.65 849.473 298.483C841.859 308.89 859.989 299.845 866.883 300.793C873.775 301.738 882.767 300.71 873.527 293.793Z" fill="#41294A"/>
<path d="M927.732 375.18C927.732 375.18 917.939 360.382 907.344 361.314C896.745 362.249 888.622 375.889 887.197 376.462C887.197 376.462 903.736 384.229 927.732 375.18" fill="#41294A"/>
<path d="M868.172 306.667C854.914 306.667 843.979 317.46 843.794 330.721C843.708 337.231 846.158 343.391 850.702 348.062C855.245 352.729 861.332 355.348 867.845 355.437L868.185 355.44C881.443 355.44 892.379 344.651 892.56 331.389C892.745 317.947 881.959 306.858 868.513 306.671L868.172 306.667ZM868.185 358.622L867.8 358.619C860.438 358.52 853.556 355.555 848.42 350.279C843.285 345.001 840.514 338.039 840.612 330.677C840.819 315.684 853.183 303.486 868.172 303.486L868.557 303.489C883.757 303.699 895.949 316.235 895.742 331.431C895.539 346.423 883.174 358.622 868.185 358.622Z" fill="#FFFCF6"/>
<path d="M937.038 301.156C923.777 301.156 912.841 311.948 912.66 325.209C912.475 338.649 923.264 349.741 936.707 349.925L937.048 349.928C950.309 349.928 961.245 339.139 961.426 325.878C961.515 319.365 959.062 313.205 954.522 308.534C949.978 303.87 943.891 301.248 937.378 301.159L937.038 301.156ZM937.048 353.11L936.666 353.107C921.463 352.897 909.271 340.361 909.478 325.165C909.685 310.173 922.046 297.974 937.038 297.974L937.423 297.977C944.786 298.076 951.668 301.041 956.8 306.316C961.938 311.595 964.71 318.556 964.608 325.919C964.401 340.911 952.037 353.11 937.048 353.11Z" fill="#FFFCF6"/>
<path d="M842.887 326.727C842.705 326.727 842.517 326.695 842.339 326.631L832.135 322.883C831.311 322.578 830.888 321.665 831.191 320.838C831.493 320.017 832.412 319.6 833.233 319.896L843.434 323.641C844.261 323.946 844.681 324.859 844.379 325.687C844.143 326.329 843.536 326.727 842.887 326.727Z" fill="#FFFCF6"/>
<path d="M961.873 319.496C961.196 319.496 960.566 319.061 960.356 318.38C960.092 317.543 960.559 316.649 961.399 316.385L975.345 312.032C976.178 311.765 977.076 312.239 977.337 313.076C977.601 313.916 977.133 314.807 976.293 315.071L962.347 319.426C962.192 319.474 962.029 319.496 961.873 319.496Z" fill="#FFFCF6"/>
<path d="M894.759 246.942C894.759 246.942 894.788 278.673 913.69 284.404C932.59 290.137 981.21 287.608 980.717 279.854C976.265 209.846 943.357 213.368 915.873 204.408C867.673 188.7 828.251 267.4 834.153 286.001C840.055 304.598 880.737 287.232 889.445 284.617C898.151 281.998 893.327 260.436 894.759 246.942" fill="#000C3E"/>
<g opacity="0.210007">
<g opacity="0.210007">
<path opacity="0.210007" d="M846.015 354.112C846.015 354.112 888.895 329.37 907.715 332.829C926.535 336.291 959.565 336.832 961.06 343.583C962.559 350.332 919.185 347.29 905.844 348.588C892.503 349.886 841.287 365.244 846.015 354.112Z" fill="#DB5C5D"/>
</g>
</g>
<path d="M870.013 337.556C869.386 337.556 868.791 337.183 868.539 336.563C868.209 335.752 868.6 334.823 869.414 334.492C873.726 332.735 874.524 331.351 874.531 331.339C874.814 330.505 875.686 330.117 876.526 330.413C877.356 330.696 877.773 331.663 877.49 332.497C877.289 333.082 876.204 335.163 870.611 337.438C870.413 337.518 870.213 337.556 870.013 337.556Z" fill="#DB5C5D"/>
<path d="M935.524 334.188C934.242 334.188 932.078 333.8 928.68 332.142C927.888 331.76 927.56 330.809 927.945 330.016C928.327 329.227 929.284 328.903 930.07 329.285C934.261 331.324 935.82 330.984 935.839 330.984C936.65 330.643 937.516 331.041 937.859 331.849C938.203 332.657 937.764 333.612 936.952 333.959C936.742 334.048 936.291 334.188 935.524 334.188Z" fill="#DB5C5D"/>
<path d="M894.128 331.541C893.323 331.541 892.629 330.933 892.546 330.112C892.457 329.237 893.094 328.454 893.969 328.368L911.042 326.625C911.898 326.517 912.696 327.169 912.785 328.044C912.875 328.919 912.238 329.702 911.363 329.788L894.29 331.531C894.236 331.537 894.182 331.541 894.128 331.541Z" fill="#FFFCF6"/>
<path d="M870.487 191.565C870.255 191.565 870.016 191.515 869.794 191.403C860.767 187.016 855.307 180.757 853.557 172.8C849.676 155.131 865.46 135.583 866.135 134.759C866.695 134.078 867.694 133.979 868.371 134.536C869.052 135.093 869.154 136.092 868.597 136.773C868.441 136.964 853.112 155.968 856.666 172.125C858.196 179.08 863.08 184.604 871.184 188.546C871.973 188.928 872.304 189.882 871.919 190.671C871.645 191.235 871.079 191.565 870.487 191.565Z" fill="#000C3E"/>
<path d="M906.817 196.294C906.375 196.294 905.936 196.109 905.621 195.753C905.041 195.091 905.105 194.089 905.767 193.507C905.951 193.344 924.196 177.121 923.343 160.598C922.977 153.487 919.067 147.235 911.72 142.014C911.004 141.508 910.835 140.515 911.345 139.796C911.854 139.083 912.846 138.915 913.562 139.424C921.742 145.233 926.105 152.306 926.521 160.445C927.444 178.508 908.665 195.196 907.864 195.899C907.561 196.163 907.189 196.294 906.817 196.294Z" fill="#000C3E"/>
<path d="M1001.45 405.181C1000.99 405.181 1000.53 404.983 1000.21 404.592C999.659 403.914 999.761 402.912 1000.44 402.355C1000.65 402.184 1021.58 384.706 1015.52 357.057C1013.18 346.398 1009.09 334.67 1004.75 322.255C997.231 300.724 989.455 278.459 988.822 256.874C988.797 255.992 989.49 255.264 990.368 255.235C991.192 255.264 991.978 255.9 992.004 256.778C992.624 277.873 1000.31 299.904 1007.75 321.205C1012.12 333.716 1016.25 345.53 1018.63 356.373C1025.11 385.979 1002.68 404.64 1002.45 404.824C1002.15 405.063 1001.8 405.181 1001.45 405.181Z" fill="#000C3E"/>
<path d="M1007.1 291.551C1007.05 291.551 1006.99 291.548 1006.94 291.545C1006.07 291.459 1005.43 290.679 1005.51 289.804C1008.26 261.967 1002.4 239.374 988.109 222.641C965.09 195.708 927.691 193.236 927.319 193.213C926.441 193.162 925.77 192.412 925.824 191.53C925.871 190.655 926.626 189.962 927.501 190.038C927.892 190.06 966.639 192.618 990.527 220.573C1005.41 237.99 1011.52 261.388 1008.68 290.116C1008.6 290.94 1007.91 291.551 1007.1 291.551Z" fill="#000C3E"/>
<path d="M893.154 378.321C893.154 378.321 909.008 367.197 923.167 376.733C923.167 376.733 906.635 382.928 893.154 378.321Z" fill="#DB5C5D"/>
<path d="M903.644 389.741C902.079 389.741 900.733 389.725 899.903 389.712C899.025 389.699 898.325 388.977 898.337 388.096C898.35 387.217 898.951 386.505 899.954 386.53C905.961 386.61 913.139 386.463 914.256 386.04C915.073 385.728 915.996 386.136 916.311 386.953C916.626 387.774 916.225 388.687 915.407 389.006C913.816 389.623 907.911 389.741 903.644 389.741Z" fill="#DB5C5D"/>
<path d="M826.48 346.203C826.337 346.203 826.194 346.184 826.051 346.143C825.204 345.907 824.711 345.032 824.946 344.183C829.299 328.583 817.743 318.538 817.625 318.436C816.957 317.87 816.874 316.865 817.444 316.193C818.01 315.525 819.016 315.442 819.687 316.015C820.228 316.473 832.907 327.498 828.01 345.042C827.813 345.742 827.177 346.203 826.48 346.203Z" fill="#DB5C5D"/>
<path d="M974.92 350.003C974.885 350.003 974.853 350.003 974.815 350C973.94 349.943 973.275 349.185 973.329 348.31C974.519 329.847 983.367 319.977 983.746 319.567C984.338 318.917 985.343 318.873 985.989 319.465C986.638 320.057 986.683 321.062 986.094 321.711C986.008 321.806 977.618 331.234 976.508 348.514C976.45 349.357 975.75 350.003 974.92 350.003Z" fill="#DB5C5D"/>
<path d="M942.972 401.941C942.972 401.941 948.031 458.534 941.318 467.485C934.604 476.438 892.084 469.721 880.893 467.485C869.703 465.248 869.681 371.648 871.94 377.97C890.623 430.185 941.684 383.977 942.972 401.941Z" fill="#FFCEB0"/>
<path d="M875.986 407.539C875.986 407.539 906.152 422.038 940.445 404.487C940.445 404.487 943.111 425.57 940.445 430.431C937.782 435.293 883.46 438.767 872.766 414.806C872.766 414.806 872.9 406.498 875.986 407.539" fill="#F5A473"/>
<path d="M711.249 850.876H1101.62C1101.62 850.876 1121.56 511.474 1072.66 474.566C1023.76 437.655 808.486 456.093 757.804 487.621C707.122 519.149 711.249 850.876 711.249 850.876Z" fill="#FB4C47"/>
<path d="M906.153 460.778C906.153 460.778 891.106 591.241 897.674 609.399C904.237 627.558 895.828 708.065 893.155 718.53C890.48 728.994 809.374 733.439 788.445 725.068C767.515 716.697 793.777 491.045 805.492 449.298C817.211 407.547 904.864 432.145 906.153 460.778Z" fill="#05BA6E"/>
<path d="M667.969 300.932C667.969 300.932 700.598 363.425 723.465 364.004C746.335 364.583 823.454 270.668 851.889 269.7C880.328 268.736 904.747 271.495 904.859 264.718C904.97 257.937 865.307 250.537 865.307 250.537C865.307 250.537 922.667 254.189 910.802 247.915C898.941 241.641 870.515 235.999 870.515 235.999C870.515 235.999 911.741 237.663 912.04 233.254C912.339 228.844 869.118 222.35 869.118 222.35C869.118 222.35 921.712 220.67 912.094 213.435C902.472 206.199 884.365 209.34 835.389 216.82C786.409 224.3 675.602 289.688 667.969 300.932Z" fill="#FFCEB0"/>
<path d="M725.214 297.938C725.214 297.938 777.41 329.03 754.683 364.265C730.483 401.784 731.838 390.638 727.654 405.818C723.467 420.998 792.441 450.563 795.578 463.557C798.715 476.548 766.201 636.332 735.745 629.774C709.235 624.069 561.915 540.466 540.743 456.92C524.332 392.15 658.102 233.722 725.214 297.938Z" fill="#FB4C47"/>
<path d="M861.845 662.398C861.845 662.398 804.011 789.801 825.274 806.862C846.538 823.919 863.672 812.805 882.476 823.878C901.283 834.95 919.323 829.414 934.43 819.78C949.537 810.142 910.22 683.391 893.958 671.323C877.697 659.252 864.776 655.777 861.845 662.398Z" fill="white"/>
<path d="M1054 465.5C1054 465.5 1085.1 469.296 1109.51 514C1127.82 547.541 1163.3 743.529 1109.51 771.454C1055.72 799.377 1005.26 784.771 985.736 765.953C966.209 747.135 1000.95 650.154 1024.11 642.915C1047.27 635.679 1054 465.5 1054 465.5Z" fill="#FB4C47"/>
<path d="M1064.07 462.496C1064.07 462.496 1065.52 453.434 1020.74 434.055C985.005 418.588 954.393 444.691 899.88 447.501C845.368 450.313 850.287 428.706 811.727 438.748C752.223 454.239 799.599 493.244 818.772 497.622C837.945 502 902.181 609.985 1064.07 462.496Z" fill="#05BA6E"/>
<path d="M907.78 353.6C907.78 353.6 907.614 357.291 909.733 357.625C911.852 357.959 915.769 356.776 914.76 351.803C914.76 351.803 909.447 353.511 907.78 353.6Z" fill="white"/>
<path d="M1128.51 659.318C1128.36 659.318 1128.21 659.309 1128.06 659.287C1126.59 659.077 1125.5 657.893 1125.35 656.483C1122.69 653.419 1104.9 647.002 1093.03 642.719C1069.51 634.234 1058.96 630.037 1056.69 625.446C1054.77 621.554 1055.63 615.942 1056.72 608.837C1058.45 597.593 1060.6 583.593 1053.46 570.109C1041.13 546.822 1042.31 512.281 1042.37 510.824C1042.44 509.067 1043.95 507.661 1045.67 507.766C1047.42 507.833 1048.79 509.312 1048.73 511.065C1048.71 511.409 1047.56 545.371 1059.09 567.131C1067.21 582.479 1064.78 598.27 1063.01 609.801C1062.16 615.321 1061.36 620.536 1062.4 622.627C1064.33 625.601 1082.9 632.302 1095.19 636.734C1122.88 646.725 1132.49 650.744 1131.66 656.588C1131.43 658.176 1130.07 659.318 1128.51 659.318Z" fill="#B31B1F"/>
<path d="M1045.5 633.159C1045.22 633.159 1044.94 633.124 1044.66 633.047C1034.15 630.18 1017.82 627.196 1017.65 627.164C1015.92 626.852 1014.78 625.195 1015.09 623.467C1015.41 621.736 1017.06 620.572 1018.79 620.906C1019.47 621.027 1035.55 623.967 1046.33 626.906C1048.03 627.371 1049.03 629.118 1048.57 630.814C1048.18 632.23 1046.9 633.159 1045.5 633.159Z" fill="#B31B1F"/>
<path d="M1102.65 790.54C1102.6 790.54 1102.55 790.54 1102.51 790.536C1043.61 787.867 984.936 762.779 981.763 738.916C980.768 731.417 980.048 727.665 979.603 725.81C978.413 725.219 977.691 723.952 977.904 722.568C978.308 719.947 980.083 719.017 981.493 719.017H981.528C984.732 719.052 985.795 720.93 988.073 738.079C990.535 756.603 1043.96 781.513 1102.79 784.179C1104.55 784.259 1105.91 785.745 1105.83 787.501C1105.75 789.21 1104.34 790.54 1102.65 790.54Z" fill="#B31B1F"/>
<path d="M997.077 734.226C996.845 734.226 996.609 734.2 996.371 734.149C994.659 733.761 993.584 732.056 993.972 730.341C994.109 729.727 1008.03 668.383 1021.03 624.256C1021.53 622.569 1023.31 621.602 1024.98 622.105C1026.67 622.601 1027.63 624.37 1027.13 626.056C1014.19 669.987 1000.32 731.133 1000.18 731.747C999.842 733.224 998.531 734.226 997.077 734.226Z" fill="#B31B1F"/>
<path d="M721 600.994C720.845 600.994 720.682 600.982 720.523 600.959C718.786 600.699 717.59 599.076 717.851 597.342C718.178 595.146 726.034 543.3 736.814 519.039C747.294 495.463 752.659 471.558 752.713 471.32C753.088 469.605 754.784 468.532 756.509 468.902C758.224 469.283 759.305 470.986 758.924 472.701C758.704 473.7 753.365 497.467 742.63 521.626C732.2 545.098 724.22 597.755 724.141 598.284C723.905 599.865 722.547 600.994 721 600.994Z" fill="#B31B1F"/>
<path d="M672.497 419.977C664.028 419.977 654.536 419.462 644.088 418.132C642.344 417.909 641.11 416.318 641.332 414.575C641.552 412.831 643.184 411.619 644.889 411.819C676.707 415.873 699.31 412.141 710.961 409.598C705.158 407.743 697.028 405.936 688.915 406.378C670.658 407.237 643.944 390.928 642.815 390.228C641.32 389.305 640.858 387.345 641.781 385.85C642.704 384.354 644.667 383.887 646.159 384.816C646.42 384.975 672.351 400.817 688.587 400.021C704.054 399.207 722.371 406.095 724.035 409.051C724.63 410.104 724.582 411.472 723.905 412.475C723.275 413.4 721.97 413.957 720.825 413.887C720.322 413.945 718.833 414.301 717.385 414.645C710.427 416.312 695.091 419.974 672.497 419.977Z" fill="#B31B1F"/>
<path d="M750.708 351.594C749.525 351.594 748.389 350.932 747.842 349.799C747.762 349.637 739.817 333.499 726.289 327.104C710.93 319.84 693.561 294.523 692.829 293.451C691.84 291.997 692.215 290.015 693.666 289.028C695.123 288.042 697.099 288.421 698.086 289.865C698.257 290.113 715.213 314.823 729.012 321.348C744.603 328.727 753.212 346.287 753.572 347.028C754.335 348.613 753.671 350.509 752.089 351.273C751.644 351.492 751.173 351.594 750.708 351.594Z" fill="#B31B1F"/>
<path d="M898.497 536.501C898.379 536.501 898.259 536.488 898.141 536.46C897.285 536.265 896.747 535.41 896.944 534.557C897.021 534.22 904.609 501.047 906.83 484.196C910.289 457.925 898.523 448.761 898.405 448.672C897.702 448.144 897.555 447.151 898.077 446.448C898.599 445.742 899.585 445.592 900.292 446.111C900.842 446.515 913.709 456.318 909.983 484.61C907.746 501.613 900.123 534.932 900.047 535.263C899.878 536.005 899.223 536.501 898.497 536.501Z" fill="#08824F"/>
<path d="M804.663 488.657L801.503 488.291C801.503 488.291 803.972 466.811 805.261 456.251C806.562 445.599 809.601 438.325 809.731 438.02C810.072 437.205 811.007 436.836 811.815 437.17C812.623 437.514 813.002 438.449 812.662 439.257C812.63 439.327 809.661 446.454 808.42 456.639C807.132 467.19 804.663 488.654 804.663 488.657Z" fill="#08824F"/>
<path d="M895.008 841.386C876.863 841.386 866.885 840.787 853.076 839.96C835.312 838.894 810.988 837.437 754.143 836.553C752.387 836.527 750.984 835.083 751.012 833.323C751.041 831.567 752.587 830.103 754.242 830.189C811.227 831.074 835.634 832.54 853.455 833.609C867.155 834.427 877.05 835.022 895.008 835.022C917.487 835.022 937.653 832.559 957.157 830.18C974.278 828.086 990.447 826.113 1007.78 825.728C1044.75 824.914 1072.37 825.725 1072.65 825.728C1074.4 825.786 1075.78 827.252 1075.73 829.005C1075.68 830.762 1074.19 832.063 1072.46 832.092C1072.18 832.082 1044.71 831.268 1007.92 832.092C990.906 832.467 974.886 834.424 957.927 836.495C938.235 838.901 917.875 841.386 895.008 841.386Z" fill="#B31B1F"/>
<path d="M1039.14 798.932C1037.56 798.932 1035.98 798.223 1034.6 796.136C1030.3 789.642 1029 789.107 1020.69 790.386C1013.17 791.56 1010.2 786.231 1008.24 782.709C1007.58 781.531 1006.96 780.421 1006.41 779.991C1004.95 778.837 1001.29 780.224 999.747 781.076L998.204 778.296C998.879 777.92 1004.87 774.723 1008.39 777.494C1009.43 778.318 1010.16 779.635 1011.01 781.156C1012.91 784.551 1014.88 788.048 1020.2 787.243C1029.72 785.773 1032.26 786.845 1037.25 794.379C1038.57 796.384 1039.72 796.11 1043.25 794.052C1045.93 792.48 1049.99 790.109 1053.02 794.341L1050.44 796.193C1049.25 794.554 1048.19 794.85 1044.85 796.797C1043.26 797.73 1041.2 798.932 1039.14 798.932Z" fill="white"/>
<path d="M1002.12 649.085C1002.12 649.085 926.125 621.604 893.153 635.661C860.181 649.715 833.009 685.948 838.042 688.344C843.076 690.743 870.012 669.852 870.012 669.852C870.012 669.852 842.544 697.609 847.638 700.387C852.732 703.164 879.201 688.344 879.201 688.344C879.201 688.344 860.725 708.096 868.66 709.607C876.595 711.119 893.608 694.844 911.349 694.233C929.094 693.619 951.455 707.641 973.638 711.59C995.818 715.535 1002.12 649.085 1002.12 649.085Z" fill="#FFCEB0"/>
<path d="M1116.82 634.84C1116.62 634.84 1116.42 634.821 1116.22 634.783C1116 634.744 1093.62 630.513 1066.86 625.072C1065.14 624.722 1064.03 623.042 1064.38 621.321C1064.73 619.599 1066.4 618.486 1068.13 618.839C1094.84 624.267 1117.18 628.489 1117.41 628.534C1119.13 628.858 1120.27 630.522 1119.94 632.25C1119.65 633.777 1118.32 634.84 1116.82 634.84Z" fill="#B31B1F"/>
<path fill-rule="evenodd" clip-rule="evenodd" d="M904.41 134.769C903.579 134.769 902.676 134.866 901.697 135.059C899.312 135.538 897.767 136.697 896.839 138.708C892.702 147.662 901.424 168.986 907.656 181.585C911.507 167.609 916.122 144.248 909.601 136.886C908.345 135.471 906.636 134.769 904.41 134.769ZM907.839 192.049C907.939 192.068 908.04 192.082 908.142 192.09C908.474 192.218 908.828 192.284 909.186 192.284C909.517 192.284 909.849 192.229 910.172 192.111C914.422 190.562 951.844 176.527 956.505 160.355C957.626 156.467 956.837 152.632 954.225 149.273C949.782 143.553 944.982 142.873 941.735 143.305C932.524 144.534 923.457 156.434 916.808 167.74C919.16 154.863 920.066 139.992 913.922 133.056C911.755 130.608 907.673 127.983 900.568 129.398C896.398 130.23 893.294 132.615 891.598 136.29C885.32 149.887 899.762 179.169 904.575 188.244C898.506 189.415 892.402 189.679 886.563 189.283C873.984 188.428 862.834 184.516 856.177 180.237L853.798 183.938C861.164 188.673 873.052 192.775 886.265 193.673C893.194 194.143 900.543 193.737 907.839 192.049ZM943.327 148.971C943.054 148.971 942.777 148.987 942.5 149.029C932.744 150.327 920.957 171.018 914.725 184.107C927.68 178.652 948.228 168.233 950.957 158.759C951.571 156.626 951.159 154.741 949.668 152.817C947.661 150.235 945.582 148.971 943.327 148.971Z" fill="#FFD310"/>
<path d="M481.27 243.75H594.515C601.784 243.75 608.662 247.045 613.218 252.71L646.458 294.048C651.173 299.91 658.363 303.223 665.883 302.997L878.85 296.596" stroke="#FFB2B1" stroke-width="5" stroke-linejoin="round"/>
<path d="M493.361 244.265C493.361 249.301 489.279 253.384 484.243 253.384C479.207 253.384 475.124 249.301 475.124 244.265C475.124 239.229 479.207 235.147 484.243 235.147C489.279 235.147 493.361 239.229 493.361 244.265Z" fill="#FF383D"/>
<path d="M295.001 244.366C295.001 205.356 326.625 173.732 365.635 173.732C404.645 173.732 436.266 205.356 436.266 244.366C436.266 283.376 404.645 315 365.635 315C326.625 315 295.001 283.376 295.001 244.366Z" fill="#FFE1E2"/>
<path d="M365.33 156.49C414.103 156.49 453.64 196.028 453.64 244.8C453.64 293.573 414.103 333.113 365.33 333.113V376.724" stroke="#FFD6D7" stroke-width="2.4" stroke-miterlimit="10"/>
<path d="M358.068 378.928C358.068 374.916 361.318 371.665 365.33 371.665C369.342 371.665 372.592 374.916 372.592 378.928C372.592 382.939 369.342 386.19 365.33 386.19C361.318 386.19 358.068 382.939 358.068 378.928Z" fill="#F2AEB0"/>
<path d="M343.603 247.372H337.308V254H334.591V238.359H344.527V240.551H337.308V245.202H343.603V247.372ZM355.828 247.018H349.404V251.83H356.913V254H346.686V238.359H356.838V240.551H349.404V244.869H355.828V247.018ZM364.636 250.595L368.611 238.359H371.597L365.969 254H363.337L357.729 238.359H360.705L364.636 250.595ZM382.511 247.018H376.088V251.83H383.596V254H373.37V238.359H383.521V240.551H376.088V244.869H382.511V247.018ZM391.556 247.974H388.527V254H385.809V238.359H391.309C393.114 238.359 394.507 238.764 395.488 239.573C396.469 240.383 396.96 241.553 396.96 243.086C396.96 244.132 396.705 245.009 396.197 245.718C395.696 246.42 394.994 246.96 394.092 247.34L397.604 253.86V254H394.693L391.556 247.974ZM388.527 245.793H391.32C392.237 245.793 392.953 245.564 393.469 245.106C393.984 244.64 394.242 244.006 394.242 243.204C394.242 242.366 394.002 241.718 393.522 241.26C393.05 240.801 392.341 240.565 391.395 240.551H388.527V245.793Z" fill="#FF383D"/>
<path d="M934.77 358.046H1103.58C1112.4 358.046 1120.5 362.877 1124.7 370.63L1155.94 428.419C1160.14 436.172 1168.24 441.004 1177.06 441.004H1259.84" stroke="#FFB2B1" stroke-width="5" stroke-linejoin="round"/>
<path d="M1263.94 440.905C1263.94 445.941 1259.86 450.023 1254.83 450.023C1249.79 450.023 1245.71 445.941 1245.71 440.905C1245.71 435.868 1249.79 431.786 1254.83 431.786C1259.86 431.786 1263.94 435.868 1263.94 440.905Z" fill="#FF383D"/>
<path opacity="0.15" d="M1289.73 459.366C1289.73 420.356 1321.36 388.732 1360.37 388.732C1399.38 388.732 1431 420.356 1431 459.366C1431 498.376 1399.38 530 1360.37 530C1321.36 530 1289.73 498.376 1289.73 459.366Z" fill="#FF383D"/>
<path d="M1336.12 446.974H1333.1V453H1330.38V437.359H1335.88C1337.68 437.359 1339.08 437.764 1340.06 438.573C1341.04 439.382 1341.53 440.553 1341.53 442.086C1341.53 443.132 1341.27 444.009 1340.77 444.718C1340.26 445.42 1339.56 445.96 1338.66 446.34L1342.17 452.86V453H1339.26L1336.12 446.974ZM1333.1 444.793H1335.89C1336.81 444.793 1337.52 444.564 1338.04 444.105C1338.55 443.64 1338.81 443.006 1338.81 442.204C1338.81 441.366 1338.57 440.718 1338.09 440.26C1337.62 439.801 1336.91 439.565 1335.96 439.551H1333.1V444.793ZM1355.55 437.359V447.812C1355.55 449.473 1355.01 450.791 1353.95 451.765C1352.89 452.731 1351.47 453.215 1349.7 453.215C1347.91 453.215 1346.49 452.739 1345.44 451.786C1344.39 450.826 1343.86 449.498 1343.86 447.801V437.359H1346.57V447.822C1346.57 448.868 1346.83 449.666 1347.36 450.218C1347.89 450.769 1348.67 451.045 1349.7 451.045C1351.79 451.045 1352.84 449.942 1352.84 447.736V437.359H1355.55ZM1370.87 453H1368.15L1361.18 441.903V453H1358.46V437.359H1361.18L1368.17 448.499V437.359H1370.87V453ZM1386.48 453H1383.77L1376.79 441.903V453H1374.08V437.359H1376.79L1383.79 448.499V437.359H1386.48V453ZM1394.5 444.771L1398.1 437.359H1401.1L1395.86 447.242V453H1393.13V447.242L1387.88 437.359H1390.9L1394.5 444.771ZM1350.73 482H1348.02L1341.04 470.903V482H1338.33V466.359H1341.04L1348.04 477.499V466.359H1350.73V482ZM1366.43 474.588C1366.43 476.12 1366.16 477.467 1365.63 478.627C1365.1 479.78 1364.34 480.668 1363.36 481.291C1362.38 481.907 1361.24 482.215 1359.96 482.215C1358.69 482.215 1357.56 481.907 1356.57 481.291C1355.58 480.668 1354.81 479.784 1354.27 478.638C1353.73 477.492 1353.46 476.171 1353.45 474.674V473.793C1353.45 472.268 1353.72 470.921 1354.26 469.754C1354.8 468.587 1355.56 467.695 1356.55 467.079C1357.53 466.456 1358.67 466.145 1359.94 466.145C1361.22 466.145 1362.34 466.452 1363.32 467.068C1364.31 467.677 1365.08 468.558 1365.61 469.711C1366.15 470.857 1366.42 472.192 1366.43 473.718V474.588ZM1363.71 473.771C1363.71 472.038 1363.38 470.71 1362.72 469.786C1362.07 468.862 1361.14 468.4 1359.94 468.4C1358.77 468.4 1357.85 468.862 1357.18 469.786C1356.52 470.703 1356.18 472.003 1356.17 473.686V474.588C1356.17 476.307 1356.5 477.635 1357.17 478.573C1357.84 479.511 1358.77 479.98 1359.96 479.98C1361.17 479.98 1362.09 479.522 1362.73 478.605C1363.39 477.689 1363.71 476.35 1363.71 474.588V473.771ZM1377.31 477.972C1377.31 477.284 1377.07 476.754 1376.58 476.382C1376.1 476.009 1375.23 475.633 1373.97 475.254C1372.71 474.874 1371.71 474.452 1370.96 473.986C1369.54 473.091 1368.82 471.924 1368.82 470.484C1368.82 469.224 1369.34 468.186 1370.36 467.369C1371.39 466.553 1372.73 466.145 1374.37 466.145C1375.46 466.145 1376.43 466.345 1377.28 466.746C1378.13 467.147 1378.8 467.72 1379.29 468.465C1379.77 469.202 1380.02 470.022 1380.02 470.925H1377.31C1377.31 470.108 1377.05 469.471 1376.54 469.013C1376.03 468.547 1375.3 468.314 1374.35 468.314C1373.46 468.314 1372.77 468.504 1372.27 468.884C1371.79 469.263 1371.54 469.793 1371.54 470.474C1371.54 471.047 1371.81 471.526 1372.34 471.913C1372.87 472.293 1373.74 472.665 1374.96 473.03C1376.18 473.388 1377.15 473.8 1377.89 474.266C1378.63 474.724 1379.17 475.254 1379.51 475.855C1379.86 476.45 1380.03 477.148 1380.03 477.95C1380.03 479.254 1379.53 480.292 1378.52 481.065C1377.53 481.832 1376.18 482.215 1374.46 482.215C1373.33 482.215 1372.29 482.007 1371.34 481.592C1370.39 481.169 1369.65 480.589 1369.12 479.852C1368.6 479.114 1368.34 478.255 1368.34 477.273H1371.06C1371.06 478.161 1371.35 478.849 1371.94 479.336C1372.53 479.823 1373.37 480.066 1374.46 480.066C1375.41 480.066 1376.12 479.877 1376.59 479.497C1377.07 479.11 1377.31 478.602 1377.31 477.972ZM1391.55 475.018H1385.13V479.83H1392.64V482H1382.41V466.359H1392.56V468.551H1385.13V472.869H1391.55V475.018Z" fill="#FF383D"/>
<path d="M1365.03 371.265C1413.8 371.265 1453.34 410.803 1453.34 459.578C1453.34 508.35 1413.8 547.888 1365.03 547.888V591.502" stroke="#FFD6D7" stroke-width="2.4" stroke-miterlimit="10"/>
<path d="M1357.77 593.704C1357.77 589.692 1361.02 586.442 1365.03 586.442C1369.04 586.442 1372.29 589.692 1372.29 593.704C1372.29 597.716 1369.04 600.966 1365.03 600.966C1361.02 600.966 1357.77 597.716 1357.77 593.704Z" fill="#F2AEB0"/>
<path opacity="0.15" d="M295.001 730.366C295.001 691.356 326.625 659.732 365.635 659.732C404.645 659.732 436.266 691.356 436.266 730.366C436.266 769.376 404.645 801 365.635 801C326.625 801 295.001 769.376 295.001 730.366Z" fill="#FF383D"/>
<g filter="url(#filter0_d_1_1152)">
<path d="M310.59 741V725.359H315.209C316.591 725.359 317.816 725.667 318.883 726.283C319.957 726.899 320.788 727.773 321.375 728.904C321.962 730.036 322.256 731.332 322.256 732.793V733.577C322.256 735.06 321.959 736.363 321.364 737.487C320.777 738.612 319.936 739.478 318.84 740.087C317.751 740.696 316.502 741 315.091 741H310.59ZM313.308 727.551V738.83H315.08C316.505 738.83 317.597 738.386 318.356 737.498C319.123 736.603 319.513 735.321 319.527 733.652V732.782C319.527 731.085 319.159 729.789 318.421 728.894C317.683 727.998 316.613 727.551 315.209 727.551H313.308ZM329.593 732.771L333.191 725.359H336.199L330.957 735.242V741H328.229V735.242L322.976 725.359H325.994L329.593 732.771ZM340.614 735.188V741H337.896V725.359H343.88C345.627 725.359 347.013 725.814 348.037 726.724C349.068 727.633 349.584 728.836 349.584 730.333C349.584 731.866 349.079 733.058 348.069 733.91C347.067 734.762 345.66 735.188 343.848 735.188H340.614ZM340.614 733.008H343.88C344.847 733.008 345.584 732.782 346.093 732.331C346.601 731.873 346.855 731.214 346.855 730.354C346.855 729.509 346.598 728.836 346.082 728.335C345.566 727.826 344.857 727.565 343.955 727.551H340.614V733.008ZM360.144 736.972C360.144 736.284 359.9 735.754 359.413 735.382C358.933 735.009 358.063 734.633 356.803 734.254C355.542 733.874 354.54 733.452 353.795 732.986C352.37 732.091 351.657 730.924 351.657 729.484C351.657 728.224 352.169 727.186 353.193 726.369C354.225 725.553 355.56 725.145 357.2 725.145C358.289 725.145 359.259 725.345 360.111 725.746C360.964 726.147 361.633 726.72 362.12 727.465C362.607 728.202 362.851 729.022 362.851 729.925H360.144C360.144 729.108 359.886 728.471 359.37 728.013C358.862 727.547 358.131 727.314 357.179 727.314C356.291 727.314 355.6 727.504 355.105 727.884C354.618 728.263 354.375 728.793 354.375 729.474C354.375 730.047 354.64 730.526 355.17 730.913C355.7 731.293 356.574 731.665 357.791 732.03C359.008 732.388 359.986 732.8 360.724 733.266C361.461 733.724 362.002 734.254 362.346 734.855C362.689 735.45 362.861 736.148 362.861 736.95C362.861 738.254 362.36 739.292 361.357 740.065C360.362 740.832 359.008 741.215 357.297 741.215C356.165 741.215 355.123 741.007 354.171 740.592C353.226 740.169 352.488 739.589 351.958 738.852C351.435 738.114 351.174 737.255 351.174 736.273H353.892C353.892 737.161 354.185 737.849 354.772 738.336C355.36 738.823 356.201 739.066 357.297 739.066C358.242 739.066 358.951 738.877 359.424 738.497C359.904 738.11 360.144 737.602 360.144 736.972ZM377.653 741H374.936L367.964 729.903V741H365.246V725.359H367.964L374.957 736.499V725.359H377.653V741ZM393.348 733.588C393.348 735.12 393.083 736.467 392.553 737.627C392.023 738.78 391.264 739.668 390.275 740.291C389.294 740.907 388.163 741.215 386.881 741.215C385.613 741.215 384.482 740.907 383.486 740.291C382.498 739.668 381.732 738.784 381.188 737.638C380.65 736.492 380.378 735.171 380.371 733.674V732.793C380.371 731.268 380.64 729.921 381.177 728.754C381.721 727.587 382.484 726.695 383.465 726.079C384.453 725.456 385.585 725.145 386.859 725.145C388.134 725.145 389.262 725.452 390.243 726.068C391.231 726.677 391.994 727.558 392.531 728.711C393.068 729.857 393.34 731.192 393.348 732.718V733.588ZM390.63 732.771C390.63 731.038 390.3 729.71 389.642 728.786C388.99 727.862 388.062 727.4 386.859 727.4C385.685 727.4 384.765 727.862 384.099 728.786C383.44 729.703 383.103 731.003 383.089 732.686V733.588C383.089 735.307 383.422 736.635 384.088 737.573C384.761 738.511 385.692 738.98 386.881 738.98C388.084 738.98 389.008 738.522 389.652 737.605C390.304 736.689 390.63 735.35 390.63 733.588V732.771ZM405.196 734.018H398.772V738.83H406.281V741H396.055V725.359H406.206V727.551H398.772V731.869H405.196V734.018ZM417.249 737.358H411.19L409.923 741H407.098L413.006 725.359H415.444L421.363 741H418.527L417.249 737.358ZM411.953 735.167H416.486L414.22 728.679L411.953 735.167Z" fill="#FF383D"/>
</g>
<path d="M365.333 642.642C414.105 642.642 453.643 682.18 453.643 730.952C453.643 779.727 414.105 819.265 365.333 819.265V862.876" stroke="#FFD6D7" stroke-width="2.4" stroke-miterlimit="10"/>
<path d="M358.07 865.08C358.07 861.068 361.321 857.818 365.332 857.818C369.344 857.818 372.595 861.068 372.595 865.08C372.595 869.089 369.344 872.342 365.332 872.342C361.321 872.342 358.07 869.089 358.07 865.08Z" fill="#F2AEB0"/>
<path d="M470.74 742.834H649.033C658.666 742.834 667.365 737.075 671.127 728.207L727.54 595.233C731.302 586.365 740.002 580.606 749.634 580.606H956.809" stroke="#FFB2B1" stroke-width="5" stroke-linejoin="round"/>
<path d="M485.987 743.241C485.987 748.277 481.904 752.359 476.868 752.359C471.832 752.359 467.75 748.277 467.75 743.241C467.75 738.205 471.832 734.122 476.868 734.122C481.904 734.122 485.987 738.205 485.987 743.241Z" fill="#FF383D"/>
<path opacity="0.15" d="M443.268 488.366C443.268 449.356 411.644 417.732 372.634 417.732C333.624 417.732 302 449.356 302 488.366C302 527.376 333.624 559 372.634 559C411.644 559 443.268 527.376 443.268 488.366Z" fill="#FF383D"/>
<path d="M341.268 471.551H336.391V485H333.695V471.551H328.861V469.359H341.268V471.551ZM355.749 485H353.042V478.05H346.048V485H343.331V469.359H346.048V475.869H353.042V469.359H355.749V485ZM364.718 478.974H361.689V485H358.971V469.359H364.471C366.276 469.359 367.669 469.764 368.65 470.573C369.631 471.382 370.122 472.553 370.122 474.086C370.122 475.132 369.867 476.009 369.359 476.718C368.858 477.42 368.156 477.96 367.253 478.34L370.766 484.86V485H367.855L364.718 478.974ZM361.689 476.793H364.482C365.399 476.793 366.115 476.564 366.63 476.105C367.146 475.64 367.404 475.006 367.404 474.204C367.404 473.366 367.164 472.718 366.684 472.26C366.211 471.801 365.502 471.565 364.557 471.551H361.689V476.793ZM385.182 477.588C385.182 479.12 384.917 480.467 384.387 481.627C383.857 482.78 383.098 483.668 382.11 484.291C381.129 484.907 379.997 485.215 378.715 485.215C377.448 485.215 376.316 484.907 375.321 484.291C374.333 483.668 373.566 482.784 373.022 481.638C372.485 480.492 372.213 479.171 372.206 477.674V476.793C372.206 475.268 372.474 473.921 373.011 472.754C373.556 471.587 374.318 470.695 375.299 470.079C376.288 469.456 377.419 469.145 378.694 469.145C379.969 469.145 381.097 469.452 382.078 470.068C383.066 470.677 383.829 471.558 384.366 472.711C384.903 473.857 385.175 475.192 385.182 476.718V477.588ZM382.464 476.771C382.464 475.038 382.135 473.71 381.476 472.786C380.824 471.862 379.897 471.4 378.694 471.4C377.519 471.4 376.599 471.862 375.933 472.786C375.274 473.703 374.938 475.003 374.923 476.686V477.588C374.923 479.307 375.256 480.635 375.922 481.573C376.596 482.511 377.527 482.98 378.715 482.98C379.918 482.98 380.842 482.522 381.487 481.605C382.139 480.689 382.464 479.35 382.464 477.588V476.771ZM396.408 481.358H390.349L389.082 485H386.256L392.165 469.359H394.603L400.522 485H397.686L396.408 481.358ZM391.112 479.167H395.645L393.378 472.679L391.112 479.167ZM412.317 471.551H407.44V485H404.744V471.551H399.91V469.359H412.317V471.551ZM352.988 508.188V514H350.27V498.359H356.253C358.001 498.359 359.387 498.814 360.411 499.724C361.442 500.633 361.958 501.836 361.958 503.333C361.958 504.866 361.453 506.058 360.443 506.91C359.44 507.762 358.033 508.188 356.221 508.188H352.988ZM352.988 506.008H356.253C357.22 506.008 357.958 505.782 358.466 505.331C358.975 504.873 359.229 504.214 359.229 503.354C359.229 502.509 358.971 501.836 358.456 501.335C357.94 500.826 357.231 500.565 356.329 500.551H352.988V506.008ZM371.185 510.358H365.126L363.859 514H361.034L366.942 498.359H369.38L375.299 514H372.463L371.185 510.358ZM365.889 508.167H370.422L368.156 501.679L365.889 508.167ZM379.951 514H377.244V498.359H379.951V514ZM395.699 514H392.981L386.009 502.903V514H383.292V498.359H386.009L393.002 509.499V498.359H395.699V514Z" fill="#FF383D"/>
<path d="M373.973 400.026C325.2 400.026 285.663 439.563 285.663 488.338C285.663 537.111 325.2 576.648 373.973 576.648V620.262" stroke="#FFD6D7" stroke-width="2.4" stroke-miterlimit="10"/>
<path d="M381.433 622.545C381.433 618.533 378.182 615.283 374.17 615.283C370.161 615.283 366.908 618.533 366.908 622.545C366.908 626.556 370.161 629.807 374.17 629.807C378.182 629.807 381.433 626.556 381.433 622.545Z" fill="#F2AEB0"/>
<path d="M474.511 503.07H677.822C685.243 503.07 692.246 499.638 696.792 493.772L739.528 438.629C744.074 432.763 751.077 429.331 758.498 429.331H915.721" stroke="#FFB2B1" stroke-width="5" stroke-linejoin="round"/>
<path d="M484.761 503.586C484.761 508.622 480.678 512.704 475.642 512.704C470.606 512.704 466.524 508.622 466.524 503.586C466.524 498.55 470.606 494.468 475.642 494.468C480.678 494.468 484.761 498.55 484.761 503.586Z" fill="#FF383D"/>
<path opacity="0.13" d="M1444 700.366C1444 661.356 1412.38 629.732 1373.37 629.732C1334.36 629.732 1302.74 661.356 1302.74 700.366C1302.74 739.376 1334.36 771 1373.37 771C1412.38 771 1444 739.376 1444 700.366Z" fill="#FF383D"/>
<path d="M1336.04 688.972C1336.04 688.284 1335.8 687.754 1335.31 687.382C1334.83 687.009 1333.96 686.633 1332.7 686.254C1331.44 685.874 1330.44 685.452 1329.69 684.986C1328.27 684.091 1327.56 682.924 1327.56 681.484C1327.56 680.224 1328.07 679.185 1329.09 678.369C1330.12 677.553 1331.46 677.144 1333.1 677.144C1334.19 677.144 1335.16 677.345 1336.01 677.746C1336.86 678.147 1337.53 678.72 1338.02 679.465C1338.51 680.202 1338.75 681.022 1338.75 681.925H1336.04C1336.04 681.108 1335.79 680.471 1335.27 680.013C1334.76 679.547 1334.03 679.314 1333.08 679.314C1332.19 679.314 1331.5 679.504 1331.01 679.884C1330.52 680.263 1330.27 680.793 1330.27 681.474C1330.27 682.046 1330.54 682.526 1331.07 682.913C1331.6 683.293 1332.47 683.665 1333.69 684.03C1334.91 684.388 1335.89 684.8 1336.62 685.266C1337.36 685.724 1337.9 686.254 1338.25 686.855C1338.59 687.45 1338.76 688.148 1338.76 688.95C1338.76 690.254 1338.26 691.292 1337.26 692.065C1336.26 692.832 1334.91 693.215 1333.2 693.215C1332.07 693.215 1331.02 693.007 1330.07 692.592C1329.13 692.169 1328.39 691.589 1327.86 690.852C1327.34 690.114 1327.07 689.254 1327.07 688.273H1329.79C1329.79 689.161 1330.09 689.849 1330.67 690.336C1331.26 690.823 1332.1 691.066 1333.2 691.066C1334.14 691.066 1334.85 690.877 1335.32 690.497C1335.8 690.11 1336.04 689.602 1336.04 688.972ZM1353.56 693H1350.86V686.05H1343.86V693H1341.15V677.359H1343.86V683.869H1350.86V677.359H1353.56V693ZM1365.73 689.358H1359.68L1358.41 693H1355.58L1361.49 677.359H1363.93L1369.85 693H1367.01L1365.73 689.358ZM1360.44 687.167H1364.97L1362.71 680.679L1360.44 687.167ZM1376.12 686.243L1374.35 688.123V693H1371.63V677.359H1374.35V684.696L1375.85 682.838L1380.43 677.359H1383.72L1377.91 684.288L1384.05 693H1380.83L1376.12 686.243ZM1388.38 693H1385.67V677.359H1388.38V693ZM1404.13 693H1401.41L1394.44 681.903V693H1391.72V677.359H1394.44L1401.43 688.499V677.359H1404.13V693ZM1419.33 690.97C1418.76 691.707 1417.98 692.266 1416.98 692.645C1415.97 693.025 1414.83 693.215 1413.56 693.215C1412.25 693.215 1411.09 692.918 1410.08 692.323C1409.07 691.729 1408.29 690.88 1407.74 689.777C1407.19 688.667 1406.91 687.375 1406.89 685.899V684.675C1406.89 682.311 1407.45 680.467 1408.59 679.143C1409.72 677.81 1411.3 677.144 1413.32 677.144C1415.06 677.144 1416.45 677.574 1417.47 678.434C1418.49 679.293 1419.11 680.532 1419.32 682.15H1416.65C1416.35 680.267 1415.26 679.325 1413.38 679.325C1412.16 679.325 1411.23 679.766 1410.59 680.646C1409.96 681.52 1409.64 682.806 1409.62 684.503V685.706C1409.62 687.396 1409.97 688.71 1410.68 689.648C1411.4 690.579 1412.39 691.045 1413.66 691.045C1415.05 691.045 1416.03 690.73 1416.62 690.1V687.038H1413.4V684.976H1419.33V690.97ZM1350.37 716.908C1350.22 718.577 1349.6 719.88 1348.53 720.818C1347.45 721.749 1346.02 722.215 1344.24 722.215C1342.99 722.215 1341.89 721.921 1340.94 721.334C1340 720.74 1339.27 719.898 1338.75 718.81C1338.23 717.721 1337.97 716.457 1337.94 715.018V713.557C1337.94 712.081 1338.21 710.782 1338.73 709.657C1339.25 708.533 1340 707.666 1340.97 707.058C1341.96 706.449 1343.09 706.144 1344.37 706.144C1346.09 706.144 1347.48 706.614 1348.54 707.552C1349.59 708.49 1350.2 709.815 1350.37 711.526H1347.67C1347.54 710.402 1347.21 709.593 1346.68 709.099C1346.16 708.597 1345.39 708.347 1344.37 708.347C1343.19 708.347 1342.28 708.78 1341.64 709.646C1341.01 710.506 1340.69 711.77 1340.67 713.438V714.824C1340.67 716.514 1340.97 717.803 1341.58 718.691C1342.18 719.579 1343.07 720.023 1344.24 720.023C1345.31 720.023 1346.11 719.783 1346.65 719.304C1347.18 718.824 1347.52 718.025 1347.67 716.908H1350.37ZM1365.23 722H1362.52V715.05H1355.53V722H1352.81V706.359H1355.53V712.869H1362.52V706.359H1365.23V722ZM1371.32 722H1368.61V706.359H1371.32V722ZM1377.38 719.83H1384.48V722H1374.66V706.359H1377.38V719.83ZM1389.28 719.83H1396.38V722H1386.56V706.359H1389.28V719.83ZM1406.64 717.972C1406.64 717.284 1406.4 716.754 1405.91 716.382C1405.43 716.009 1404.56 715.633 1403.3 715.254C1402.04 714.874 1401.04 714.452 1400.29 713.986C1398.87 713.091 1398.15 711.924 1398.15 710.484C1398.15 709.224 1398.67 708.185 1399.69 707.369C1400.72 706.553 1402.06 706.144 1403.7 706.144C1404.79 706.144 1405.76 706.345 1406.61 706.746C1407.46 707.147 1408.13 707.72 1408.62 708.465C1409.1 709.202 1409.35 710.022 1409.35 710.925H1406.64C1406.64 710.108 1406.38 709.471 1405.87 709.013C1405.36 708.547 1404.63 708.314 1403.68 708.314C1402.79 708.314 1402.1 708.504 1401.6 708.884C1401.12 709.263 1400.87 709.793 1400.87 710.474C1400.87 711.046 1401.14 711.526 1401.67 711.913C1402.2 712.293 1403.07 712.665 1404.29 713.03C1405.51 713.388 1406.48 713.8 1407.22 714.266C1407.96 714.724 1408.5 715.254 1408.84 715.855C1409.19 716.45 1409.36 717.148 1409.36 717.95C1409.36 719.254 1408.86 720.292 1407.85 721.065C1406.86 721.832 1405.51 722.215 1403.79 722.215C1402.66 722.215 1401.62 722.007 1400.67 721.592C1399.72 721.169 1398.99 720.589 1398.46 719.852C1397.93 719.114 1397.67 718.254 1397.67 717.273H1400.39C1400.39 718.161 1400.68 718.849 1401.27 719.336C1401.86 719.823 1402.7 720.066 1403.79 720.066C1404.74 720.066 1405.45 719.877 1405.92 719.497C1406.4 719.11 1406.64 718.602 1406.64 717.972Z" fill="#FA5652"/>
<path d="M1373.87 613.801C1325.1 613.801 1285.56 653.339 1285.56 702.111C1285.56 750.886 1325.1 790.424 1373.87 790.424V834.035" stroke="#FFD6D7" stroke-width="2.4" stroke-miterlimit="10"/>
<path d="M1381.13 836.239C1381.13 832.227 1377.88 828.976 1373.86 828.976C1369.85 828.976 1366.6 832.227 1366.6 836.239C1366.6 840.248 1369.85 843.501 1373.86 843.501C1377.88 843.501 1381.13 840.248 1381.13 836.239Z" fill="#F2AEB0"/>
<path d="M1009.74 754.401H1100.85C1108.12 754.401 1115.01 751.098 1119.56 745.421L1145.1 713.605C1149.65 707.929 1156.54 704.626 1163.81 704.626H1258" stroke="#FFA6A6" stroke-width="5" stroke-linejoin="round"/>
<path d="M1263.94 703.913C1263.94 708.949 1259.86 713.031 1254.82 713.031C1249.79 713.031 1245.71 708.949 1245.71 703.913C1245.71 698.876 1249.79 694.794 1254.82 694.794C1259.86 694.794 1263.94 698.876 1263.94 703.913Z" fill="#FF383D"/>
<path opacity="0.15" d="M1444 214.366C1444 175.356 1412.38 143.732 1373.37 143.732C1334.36 143.732 1302.74 175.356 1302.74 214.366C1302.74 253.376 1334.36 285 1373.37 285C1412.38 285 1444 253.376 1444 214.366Z" fill="#FF383D"/>
<path d="M1333.01 225H1330.3V218.05H1323.31V225H1320.59V209.359H1323.31V215.869H1330.3V209.359H1333.01V225ZM1345.37 218.018H1338.95V222.83H1346.46V225H1336.23V209.359H1346.38V211.551H1338.95V215.869H1345.37V218.018ZM1357.43 221.358H1351.37L1350.1 225H1347.27L1353.18 209.359H1355.62L1361.54 225H1358.7L1357.43 221.358ZM1352.13 219.167H1356.66L1354.4 212.679L1352.13 219.167ZM1363.32 225V209.359H1367.94C1369.32 209.359 1370.55 209.667 1371.62 210.283C1372.69 210.899 1373.52 211.773 1374.11 212.904C1374.7 214.036 1374.99 215.332 1374.99 216.793V217.577C1374.99 219.06 1374.69 220.363 1374.1 221.487C1373.51 222.612 1372.67 223.478 1371.57 224.087C1370.48 224.696 1369.24 225 1367.82 225H1363.32ZM1366.04 211.551V222.83H1367.81C1369.24 222.83 1370.33 222.386 1371.09 221.498C1371.86 220.603 1372.25 219.321 1372.26 217.652V216.782C1372.26 215.085 1371.89 213.789 1371.15 212.894C1370.42 211.998 1369.35 211.551 1367.94 211.551H1366.04ZM1386.22 221.358H1380.16L1378.89 225H1376.06L1381.97 209.359H1384.41L1390.33 225H1387.49L1386.22 221.358ZM1380.92 219.167H1385.45L1383.19 212.679L1380.92 219.167ZM1403.81 219.908C1403.65 221.577 1403.04 222.88 1401.96 223.818C1400.89 224.749 1399.46 225.215 1397.68 225.215C1396.43 225.215 1395.33 224.921 1394.38 224.334C1393.43 223.74 1392.7 222.898 1392.19 221.81C1391.67 220.721 1391.4 219.457 1391.38 218.018V216.557C1391.38 215.081 1391.64 213.782 1392.17 212.657C1392.69 211.533 1393.44 210.666 1394.41 210.058C1395.39 209.449 1396.52 209.145 1397.81 209.145C1399.53 209.145 1400.92 209.614 1401.97 210.552C1403.03 211.49 1403.64 212.815 1403.81 214.526H1401.1C1400.97 213.402 1400.65 212.593 1400.12 212.099C1399.59 211.597 1398.82 211.347 1397.81 211.347C1396.62 211.347 1395.71 211.78 1395.08 212.647C1394.45 213.506 1394.12 214.77 1394.11 216.439V217.824C1394.11 219.514 1394.41 220.803 1395.01 221.691C1395.62 222.579 1396.51 223.023 1397.68 223.023C1398.74 223.023 1399.55 222.784 1400.08 222.304C1400.62 221.824 1400.96 221.025 1401.1 219.908H1403.81ZM1418.67 225H1415.96V218.05H1408.97V225H1406.25V209.359H1408.97V215.869H1415.96V209.359H1418.67V225ZM1431.03 218.018H1424.61V222.83H1432.12V225H1421.89V209.359H1432.04V211.551H1424.61V215.869H1431.03V218.018Z" fill="#FF383D"/>
<path d="M1373.87 127.65C1325.1 127.65 1285.56 167.187 1285.56 215.96C1285.56 264.732 1325.1 304.272 1373.87 304.272V347.883" stroke="#FFD6D7" stroke-width="2.4" stroke-miterlimit="10"/>
<path d="M1381.13 350.087C1381.13 346.075 1377.88 342.825 1373.87 342.825C1369.86 342.825 1366.61 346.075 1366.61 350.087C1366.61 354.099 1369.86 357.349 1373.87 357.349C1377.88 357.349 1381.13 354.099 1381.13 350.087Z" fill="#F2AEB0"/>
<path d="M1259.84 222.859H1133.56C1127.44 222.859 1121.56 225.195 1117.1 229.39L1088.57 256.271C1084.11 260.466 1078.23 262.802 1072.11 262.802H958.12" stroke="#FFB2B1" stroke-width="5" stroke-linejoin="round"/>
<path d="M1263.94 222.146C1263.94 227.182 1259.86 231.264 1254.82 231.264C1249.79 231.264 1245.7 227.182 1245.7 222.146C1245.7 217.11 1249.79 213.027 1254.82 213.027C1259.86 213.027 1263.94 217.11 1263.94 222.146Z" fill="#FF383D"/>
<defs>
<filter id="filter0_d_1_1152" x="310.59" y="725.145" width="110.773" height="16.0703" filterUnits="userSpaceOnUse" color-interpolation-filters="sRGB">
<feFlood flood-opacity="0" result="BackgroundImageFix"/>
<feColorMatrix in="SourceAlpha" type="matrix" values="0 0 0 0 0 0 0 0 0 0 0 0 0 0 0 0 0 0 127 0" result="hardAlpha"/>
<feOffset/>
<feColorMatrix type="matrix" values="0 0 0 0 0 0 0 0 0 0 0 0 0 0 0 0 0 0 0.1 0"/>
<feBlend mode="normal" in2="BackgroundImageFix" result="effect1_dropShadow_1_1152"/>
<feBlend mode="normal" in="SourceGraphic" in2="effect1_dropShadow_1_1152" result="shape"/>
</filter>
<linearGradient id="paint0_linear_1_1152" x1="563.615" y1="651.802" x2="627.866" y2="780.175" gradientUnits="userSpaceOnUse">
<stop stop-color="#FFC8C8"/>
<stop offset="1" stop-color="#FFF2F5"/>
</linearGradient>
<linearGradient id="paint1_linear_1_1152" x1="1195.18" y1="248.499" x2="673.511" y2="38.2372" gradientUnits="userSpaceOnUse">
<stop stop-color="white"/>
<stop offset="1" stop-color="#FFD5D5"/>
</linearGradient>
<linearGradient id="paint2_linear_1_1152" x1="1127.95" y1="153.536" x2="966.873" y2="126.967" gradientUnits="userSpaceOnUse">
<stop stop-color="#FFD3D3"/>
<stop offset="1" stop-color="#FFF6F6"/>
</linearGradient>
<linearGradient id="paint3_linear_1_1152" x1="489.431" y1="428.025" x2="1246.77" y2="428.025" gradientUnits="userSpaceOnUse">
<stop stop-color="#FFF8F5"/>
<stop offset="1" stop-color="#FFDEDE"/>
</linearGradient>
<linearGradient id="paint4_linear_1_1152" x1="1177.01" y1="609.534" x2="978.623" y2="627.818" gradientUnits="userSpaceOnUse">
<stop stop-color="#FFC2C2"/>
<stop offset="1" stop-color="white"/>
</linearGradient>
<linearGradient id="paint5_linear_1_1152" x1="164.736" y1="646.295" x2="-11.8229" y2="621.419" gradientUnits="userSpaceOnUse">
<stop stop-color="#FFE1E2"/>
<stop offset="1" stop-color="#FFF8F8"/>
</linearGradient>
<linearGradient id="paint6_linear_1_1152" x1="1710.07" y1="724.796" x2="1600.45" y2="833.245" gradientUnits="userSpaceOnUse">
<stop stop-color="#FFD3D2"/>
<stop offset="1" stop-color="#FFFAFA"/>
</linearGradient>
</defs>
</svg>
